# xmcd
# 
# Track frame offsets:
#     150
#     97297
#     112509
#     132902
#     183980
#     204591
#     222578
#     244826
#     273704
#     306392
# 
# Disc length: 4391
# 
# Revision: 0
# Processed by: cddbd v1.5.2PL0 Copyright (c) Steve Scherf et al.
# Submitted via: fre:ac v1.0.17
# 
DISCID=9a11250a
DTITLE=Rare Earth - Get Ready
DYEAR=1960
DGENRE=Blues
TTITLE0=Get Ready
TTITLE1=Born to wonder
TTITLE2=Long time leavin'
TTITLE3=(I know) I'm loosing you
TTITLE4=Satisfaction guaranteed
TTITLE5=Nice place to visit
TTITLE6=No.1 Man
TTITLE7=Eleanor Rigby
TTITLE8=Tobacco Road
TTITLE9=Feeling alright
EXTD=
EXTT0=
EXTT1=
EXTT2=
EXTT3=
EXTT4=
EXTT5=
EXTT6=
EXTT7=
EXTT8=
EXTT9=
PLAYORDER=
